<svg xmlns="http://www.w3.org/2000/svg" viewBox="0 0 900 280" width="900" height="280" role="img" aria-label="MasterPandaa, Full-Stack Developer, QA Engineer, Data Engineer">
<rect x=".5" y=".5" width="899" height="279" rx="18" fill="#F3F2EF" stroke="#DAD8D2"/>
<g>
<animate attributeName="opacity" from="0" to="1" dur="1.4s" begin="0s" fill="freeze"/>
<g transform="translate(739 52)" shape-rendering="crispEdges">
<path d="M18 18h6v6h-6zM24 18h6v6h-6zM30 18h6v6h-6zM36 18h6v6h-6zM42 18h6v6h-6zM48 18h6v6h-6zM54 18h6v6h-6zM60 18h6v6h-6zM66 18h6v6h-6zM72 18h6v6h-6zM78 18h6v6h-6zM0 24h6v6h-6zM6 24h6v6h-6zM12 24h6v6h-6zM18 24h6v6h-6zM24 24h6v6h-6zM30 24h6v6h-6zM36 24h6v6h-6zM42 24h6v6h-6zM48 24h6v6h-6zM54 24h6v6h-6zM60 24h6v6h-6zM66 24h6v6h-6zM72 24h6v6h-6zM78 24h6v6h-6zM84 24h6v6h-6zM90 24h6v6h-6zM96 24h6v6h-6zM0 30h6v6h-6zM6 30h6v6h-6zM36 30h6v6h-6zM42 30h6v6h-6zM48 30h6v6h-6zM54 30h6v6h-6zM60 30h6v6h-6zM90 30h6v6h-6zM96 30h6v6h-6zM0 36h6v6h-6zM42 36h6v6h-6zM48 36h6v6h-6zM54 36h6v6h-6zM96 36h6v6h-6zM0 42h6v6h-6zM42 42h6v6h-6zM48 42h6v6h-6zM54 42h6v6h-6zM96 42h6v6h-6zM0 48h6v6h-6zM42 48h6v6h-6zM48 48h6v6h-6zM54 48h6v6h-6zM96 48h6v6h-6zM0 54h6v6h-6zM42 54h6v6h-6zM48 54h6v6h-6zM54 54h6v6h-6zM96 54h6v6h-6zM0 60h6v6h-6zM6 60h6v6h-6zM36 60h6v6h-6zM42 60h6v6h-6zM48 60h6v6h-6zM54 60h6v6h-6zM60 60h6v6h-6zM90 60h6v6h-6zM96 60h6v6h-6zM0 66h6v6h-6zM6 66h6v6h-6zM12 66h6v6h-6zM18 66h6v6h-6zM24 66h6v6h-6zM30 66h6v6h-6zM36 66h6v6h-6zM60 66h6v6h-6zM66 66h6v6h-6zM72 66h6v6h-6zM78 66h6v6h-6zM84 66h6v6h-6zM90 66h6v6h-6zM96 66h6v6h-6zM0 72h6v6h-6zM6 72h6v6h-6zM12 72h6v6h-6zM18 72h6v6h-6zM30 72h6v6h-6zM42 72h6v6h-6zM54 72h6v6h-6zM66 72h6v6h-6zM78 72h6v6h-6zM84 72h6v6h-6zM90 72h6v6h-6zM96 72h6v6h-6zM6 78h6v6h-6zM12 78h6v6h-6zM18 78h6v6h-6zM24 78h6v6h-6zM30 78h6v6h-6zM36 78h6v6h-6zM42 78h6v6h-6zM48 78h6v6h-6zM54 78h6v6h-6zM60 78h6v6h-6zM66 78h6v6h-6zM72 78h6v6h-6zM78 78h6v6h-6zM84 78h6v6h-6zM90 78h6v6h-6z" fill="#141416"/>
<path d="M12 30h6v6h-6zM18 30h6v6h-6zM24 30h6v6h-6zM30 30h6v6h-6zM66 30h6v6h-6zM72 30h6v6h-6zM78 30h6v6h-6zM84 30h6v6h-6zM6 36h6v6h-6zM12 36h6v6h-6zM18 36h6v6h-6zM24 36h6v6h-6zM30 36h6v6h-6zM36 36h6v6h-6zM60 36h6v6h-6zM66 36h6v6h-6zM72 36h6v6h-6zM78 36h6v6h-6zM84 36h6v6h-6zM90 36h6v6h-6zM6 42h6v6h-6zM12 42h6v6h-6zM30 42h6v6h-6zM36 42h6v6h-6zM60 42h6v6h-6zM66 42h6v6h-6zM84 42h6v6h-6zM90 42h6v6h-6zM6 48h6v6h-6zM12 48h6v6h-6zM30 48h6v6h-6zM36 48h6v6h-6zM60 48h6v6h-6zM66 48h6v6h-6zM84 48h6v6h-6zM90 48h6v6h-6zM6 54h6v6h-6zM12 54h6v6h-6zM18 54h6v6h-6zM24 54h6v6h-6zM30 54h6v6h-6zM36 54h6v6h-6zM60 54h6v6h-6zM66 54h6v6h-6zM72 54h6v6h-6zM78 54h6v6h-6zM84 54h6v6h-6zM90 54h6v6h-6zM12 60h6v6h-6zM18 60h6v6h-6zM24 60h6v6h-6zM30 60h6v6h-6zM66 60h6v6h-6zM72 60h6v6h-6zM78 60h6v6h-6zM84 60h6v6h-6zM42 66h6v6h-6zM48 66h6v6h-6zM54 66h6v6h-6zM24 72h6v6h-6zM36 72h6v6h-6zM48 72h6v6h-6zM60 72h6v6h-6zM72 72h6v6h-6z" fill="#F3F2EF"/>
<path d="M48 6h6v6h-6zM0 12h6v6h-6zM6 12h6v6h-6zM12 12h6v6h-6zM84 12h6v6h-6zM90 12h6v6h-6zM96 12h6v6h-6zM0 18h6v6h-6zM6 18h6v6h-6zM12 18h6v6h-6zM84 18h6v6h-6zM90 18h6v6h-6zM96 18h6v6h-6zM24 84h6v6h-6zM30 84h6v6h-6zM36 84h6v6h-6zM42 84h6v6h-6zM48 84h6v6h-6zM54 84h6v6h-6zM60 84h6v6h-6zM66 84h6v6h-6zM72 84h6v6h-6z" fill="#6B6B72"/>
<path d="M18 42h6v6h-6zM24 42h6v6h-6zM72 42h6v6h-6zM78 42h6v6h-6zM18 48h6v6h-6zM24 48h6v6h-6zM72 48h6v6h-6zM78 48h6v6h-6z" fill="#9C7A2E"><animate attributeName="opacity" values="1;.1;1;1" keyTimes="0;.95;.98;1" calcMode="discrete" dur="5s" repeatCount="indefinite"/></path>
<path d="M48 0h6v6h-6z" fill="#9C7A2E"><animate attributeName="opacity" values=".3;1;.3" keyTimes="0;.5;1" dur="2.4s" repeatCount="indefinite"/></path>
</g>
<text x="48" y="118" font-family="Georgia, 'Times New Roman', serif" font-size="64" letter-spacing="-1" fill="#141416">MasterPandaa</text>
<text x="48" y="162" font-family="-apple-system, 'Segoe UI', Helvetica, Arial, sans-serif" font-size="20" fill="#6B6B72">Full-Stack Developer, QA Engineer, Data Engineer</text>
</g>
<circle cx="72" cy="222" r="2.5" fill="#6B6B72" opacity=".7"><animate attributeName="opacity" values=".7;0;0" keyTimes="0;0.0168;1" calcMode="discrete" dur="12s" repeatCount="indefinite"/></circle><circle cx="96" cy="222" r="2.5" fill="#6B6B72" opacity=".7"><animate attributeName="opacity" values=".7;0;0" keyTimes="0;0.0392;1" calcMode="discrete" dur="12s" repeatCount="indefinite"/></circle><circle cx="120" cy="222" r="2.5" fill="#6B6B72" opacity=".7"><animate attributeName="opacity" values=".7;0;0" keyTimes="0;0.0616;1" calcMode="discrete" dur="12s" repeatCount="indefinite"/></circle><circle cx="144" cy="222" r="2.5" fill="#6B6B72" opacity=".7"><animate attributeName="opacity" values=".7;0;0" keyTimes="0;0.084;1" calcMode="discrete" dur="12s" repeatCount="indefinite"/></circle><circle cx="168" cy="222" r="2.5" fill="#6B6B72" opacity=".7"><animate attributeName="opacity" values=".7;0;0" keyTimes="0;0.1063;1" calcMode="discrete" dur="12s" repeatCount="indefinite"/></circle><circle cx="192" cy="222" r="2.5" fill="#6B6B72" opacity=".7"><animate attributeName="opacity" values=".7;0;0" keyTimes="0;0.1287;1" calcMode="discrete" dur="12s" repeatCount="indefinite"/></circle><circle cx="216" cy="222" r="2.5" fill="#6B6B72" opacity=".7"><animate attributeName="opacity" values=".7;0;0" keyTimes="0;0.1511;1" calcMode="discrete" dur="12s" repeatCount="indefinite"/></circle><circle cx="240" cy="222" r="2.5" fill="#6B6B72" opacity=".7"><animate attributeName="opacity" values=".7;0;0" keyTimes="0;0.1735;1" calcMode="discrete" dur="12s" repeatCount="indefinite"/></circle><circle cx="264" cy="222" r="2.5" fill="#6B6B72" opacity=".7"><animate attributeName="opacity" values=".7;0;0" keyTimes="0;0.1959;1" calcMode="discrete" dur="12s" repeatCount="indefinite"/></circle><circle cx="288" cy="222" r="2.5" fill="#6B6B72" opacity=".7"><animate attributeName="opacity" values=".7;0;0" keyTimes="0;0.2183;1" calcMode="discrete" dur="12s" repeatCount="indefinite"/></circle><circle cx="312" cy="222" r="2.5" fill="#6B6B72" opacity=".7"><animate attributeName="opacity" values=".7;0;0" keyTimes="0;0.2407;1" calcMode="discrete" dur="12s" repeatCount="indefinite"/></circle><circle cx="336" cy="222" r="2.5" fill="#6B6B72" opacity=".7"><animate attributeName="opacity" values=".7;0;0" keyTimes="0;0.2631;1" calcMode="discrete" dur="12s" repeatCount="indefinite"/></circle><circle cx="360" cy="222" r="2.5" fill="#6B6B72" opacity=".7"><animate attributeName="opacity" values=".7;0;0" keyTimes="0;0.2854;1" calcMode="discrete" dur="12s" repeatCount="indefinite"/></circle><circle cx="384" cy="222" r="2.5" fill="#6B6B72" opacity=".7"><animate attributeName="opacity" values=".7;0;0" keyTimes="0;0.3078;1" calcMode="discrete" dur="12s" repeatCount="indefinite"/></circle><circle cx="408" cy="222" r="2.5" fill="#6B6B72" opacity=".7"><animate attributeName="opacity" values=".7;0;0" keyTimes="0;0.3302;1" calcMode="discrete" dur="12s" repeatCount="indefinite"/></circle><circle cx="432" cy="222" r="2.5" fill="#6B6B72" opacity=".7"><animate attributeName="opacity" values=".7;0;0" keyTimes="0;0.3526;1" calcMode="discrete" dur="12s" repeatCount="indefinite"/></circle><circle cx="456" cy="222" r="2.5" fill="#6B6B72" opacity=".7"><animate attributeName="opacity" values=".7;0;0" keyTimes="0;0.375;1" calcMode="discrete" dur="12s" repeatCount="indefinite"/></circle><circle cx="480" cy="222" r="2.5" fill="#6B6B72" opacity=".7"><animate attributeName="opacity" values=".7;0;0" keyTimes="0;0.3974;1" calcMode="discrete" dur="12s" repeatCount="indefinite"/></circle><circle cx="504" cy="222" r="2.5" fill="#6B6B72" opacity=".7"><animate attributeName="opacity" values=".7;0;0" keyTimes="0;0.4198;1" calcMode="discrete" dur="12s" repeatCount="indefinite"/></circle><circle cx="528" cy="222" r="2.5" fill="#6B6B72" opacity=".7"><animate attributeName="opacity" values=".7;0;0" keyTimes="0;0.4422;1" calcMode="discrete" dur="12s" repeatCount="indefinite"/></circle><circle cx="552" cy="222" r="2.5" fill="#6B6B72" opacity=".7"><animate attributeName="opacity" values=".7;0;0" keyTimes="0;0.4646;1" calcMode="discrete" dur="12s" repeatCount="indefinite"/></circle><circle cx="576" cy="222" r="2.5" fill="#6B6B72" opacity=".7"><animate attributeName="opacity" values=".7;0;0" keyTimes="0;0.4869;1" calcMode="discrete" dur="12s" repeatCount="indefinite"/></circle><circle cx="600" cy="222" r="2.5" fill="#6B6B72" opacity=".7"><animate attributeName="opacity" values=".7;0;0" keyTimes="0;0.5093;1" calcMode="discrete" dur="12s" repeatCount="indefinite"/></circle><circle cx="624" cy="222" r="2.5" fill="#6B6B72" opacity=".7"><animate attributeName="opacity" values=".7;0;0" keyTimes="0;0.5317;1" calcMode="discrete" dur="12s" repeatCount="indefinite"/></circle><circle cx="648" cy="222" r="2.5" fill="#6B6B72" opacity=".7"><animate attributeName="opacity" values=".7;0;0" keyTimes="0;0.5541;1" calcMode="discrete" dur="12s" repeatCount="indefinite"/></circle><circle cx="672" cy="222" r="2.5" fill="#6B6B72" opacity=".7"><animate attributeName="opacity" values=".7;0;0" keyTimes="0;0.5765;1" calcMode="discrete" dur="12s" repeatCount="indefinite"/></circle><circle cx="696" cy="222" r="2.5" fill="#6B6B72" opacity=".7"><animate attributeName="opacity" values=".7;0;0" keyTimes="0;0.5989;1" calcMode="discrete" dur="12s" repeatCount="indefinite"/></circle><circle cx="720" cy="222" r="2.5" fill="#6B6B72" opacity=".7"><animate attributeName="opacity" values=".7;0;0" keyTimes="0;0.6213;1" calcMode="discrete" dur="12s" repeatCount="indefinite"/></circle><circle cx="744" cy="222" r="2.5" fill="#6B6B72" opacity=".7"><animate attributeName="opacity" values=".7;0;0" keyTimes="0;0.6437;1" calcMode="discrete" dur="12s" repeatCount="indefinite"/></circle><circle cx="768" cy="222" r="2.5" fill="#6B6B72" opacity=".7"><animate attributeName="opacity" values=".7;0;0" keyTimes="0;0.666;1" calcMode="discrete" dur="12s" repeatCount="indefinite"/></circle><circle cx="792" cy="222" r="2.5" fill="#6B6B72" opacity=".7"><animate attributeName="opacity" values=".7;0;0" keyTimes="0;0.6884;1" calcMode="discrete" dur="12s" repeatCount="indefinite"/></circle><circle cx="816" cy="222" r="2.5" fill="#6B6B72" opacity=".7"><animate attributeName="opacity" values=".7;0;0" keyTimes="0;0.7108;1" calcMode="discrete" dur="12s" repeatCount="indefinite"/></circle><circle cx="840" cy="222" r="2.5" fill="#6B6B72" opacity=".7"><animate attributeName="opacity" values=".7;0;0" keyTimes="0;0.7332;1" calcMode="discrete" dur="12s" repeatCount="indefinite"/></circle>
<g>
<animateTransform attributeName="transform" type="translate" values="48 222;852 222;852 222" keyTimes="0;.75;1" dur="12s" repeatCount="indefinite"/>
<animate attributeName="opacity" values="1;1;0;0" keyTimes="0;.75;.8;1" dur="12s" repeatCount="indefinite"/>
<path fill="#9C7A2E" d="M0 0 L11.47 -8.03 A14 14 0 1 0 11.47 8.03 Z"><animate attributeName="d" values="M0 0 L11.47 -8.03 A14 14 0 1 0 11.47 8.03 Z;M0 0 L13.98 -0.73 A14 14 0 1 0 13.98 0.73 Z;M0 0 L11.47 -8.03 A14 14 0 1 0 11.47 8.03 Z" dur=".4s" repeatCount="indefinite"/></path>
</g>
</svg>